{
	"asset":{
		"version":"2.0",
		"generator":"Created using the official Cinema 4D glTF Exporter 1.000x290161"
	},
	"scenes":[{
		"nodes":[0,
		1,
		2,
		3,
		4,
		5]
	}],
	"nodes":[{
		"name":"Sphere.3",
		"translation":[-66.9632339477539,
		70.0,
		-74.34455871582031],
		"rotation":[0.0,
		0.0,
		0.0,
		-1.0],
		"scale":[1.0,
		1.0,
		1.0],
		"mesh":0
	},
	{
		"name":"Sphere.2",
		"translation":[-98.7865982055664,
		60.0,
		15.665665626525879],
		"rotation":[0.0,
		0.0,
		0.0,
		-1.0],
		"scale":[1.0,
		1.0,
		1.0],
		"mesh":1
	},
	{
		"name":"Sphere.1",
		"translation":[-40.695064544677737,
		50.0,
		91.4082260131836],
		"rotation":[0.0,
		0.0,
		0.0,
		-1.0],
		"scale":[1.0,
		1.0,
		1.0],
		"mesh":2
	},
	{
		"name":"Sphere",
		"translation":[54.50229263305664,
		40.0,
		83.91265106201172],
		"rotation":[0.0,
		0.0,
		0.0,
		-1.0],
		"scale":[1.0,
		1.0,
		1.0],
		"mesh":3
	},
	{
		"name":"Physical Sky",
		"translation":[0.0,
		0.0,
		0.0],
		"rotation":[0.0,
		0.0,
		0.0,
		-1.0],
		"scale":[1.0,
		1.0,
		1.0]
	},
	{
		"name":"group1",
		"translation":[45.983402252197269,
		0.0,
		119.44315338134766],
		"rotation":[0.0,
		0.0,
		0.0,
		-1.0],
		"scale":[1.0,
		1.0,
		1.0],
		"children":[6,
		7,
		8]
	},
	{
		"name":"The_City:mesh01",
		"translation":[1.676450490951538,
		0.0,
		0.0],
		"rotation":[0.0,
		0.0,
		0.0,
		-1.0],
		"scale":[0.1484925001859665,
		0.1484925001859665,
		0.1484925001859665],
		"mesh":4
	},
	{
		"name":"The_City:bldgs2",
		"translation":[0.0,
		0.0,
		0.0],
		"rotation":[0.0,
		0.0,
		0.0,
		-1.0],
		"scale":[0.1484925001859665,
		0.1484925001859665,
		0.1484925001859665],
		"mesh":5
	},
	{
		"name":"pPlane1",
		"translation":[-32.21083450317383,
		6.951096534729004,
		-131.27671813964845],
		"rotation":[0.0,
		0.0,
		0.0,
		-1.0],
		"scale":[934.55322265625,
		673.220458984375,
		673.220458984375],
		"mesh":6
	}],
	"meshes":[{
		"primitives":[{
			"attributes":{
				"POSITION":1,
				"NORMAL":2,
				"TEXCOORD_0":3
			},
			"indices":0,
			"material":0
		}]
	},
	{
		"primitives":[{
			"attributes":{
				"POSITION":9,
				"NORMAL":10,
				"TEXCOORD_0":11
			},
			"indices":8,
			"material":0
		}]
	},
	{
		"primitives":[{
			"attributes":{
				"POSITION":17,
				"NORMAL":18,
				"TEXCOORD_0":19
			},
			"indices":16,
			"material":0
		}]
	},
	{
		"primitives":[{
			"attributes":{
				"POSITION":25,
				"NORMAL":26,
				"TEXCOORD_0":27
			},
			"indices":24,
			"material":0
		}]
	},
	{
		"primitives":[{
			"attributes":{
				"POSITION":35,
				"NORMAL":36,
				"TEXCOORD_0":37
			},
			"indices":34,
			"material":1
		}]
	},
	{
		"primitives":[{
			"attributes":{
				"POSITION":39,
				"NORMAL":40,
				"TEXCOORD_0":41
			},
			"indices":38,
			"material":1
		}]
	},
	{
		"primitives":[{
			"attributes":{
				"POSITION":43,
				"NORMAL":44,
				"TEXCOORD_0":45
			},
			"indices":42,
			"material":1
		}]
	}],
	"accessors":[{
		"max":[150],
		"bufferView":0,
		"type":"SCALAR",
		"componentType":5123,
		"count":672,
		"byteOffset":0,
		"min":[0]
	},
	{
		"max":[5.0,
		5.0,
		5.0],
		"bufferView":1,
		"type":"VEC3",
		"componentType":5126,
		"count":151,
		"byteOffset":0,
		"min":[-5.0,
		-5.0,
		-5.0]
	},
	{
		"max":[0.9999999403953552,
		1.0,
		0.9999999403953552],
		"bufferView":1,
		"type":"VEC3",
		"componentType":5126,
		"count":151,
		"byteOffset":12,
		"min":[-0.9999999403953552,
		-1.0,
		-0.9999999403953552]
	},
	{
		"max":[1.0,
		1.0],
		"bufferView":1,
		"type":"VEC2",
		"componentType":5126,
		"count":151,
		"byteOffset":24,
		"min":[0.0,
		0.0]
	},
	{
		"max":[10.0],
		"bufferView":2,
		"type":"SCALAR",
		"componentType":5126,
		"count":241,
		"byteOffset":0,
		"min":[0.0]
	},
	{
		"max":[100.0,
		70.0,
		100.0],
		"bufferView":2,
		"type":"VEC3",
		"componentType":5126,
		"count":241,
		"byteOffset":964,
		"min":[-100.0,
		70.0,
		-100.0]
	},
	{
		"max":[10.0],
		"bufferView":3,
		"type":"SCALAR",
		"componentType":5126,
		"count":241,
		"byteOffset":0,
		"min":[0.0]
	},
	{
		"max":[1.0,
		1.0,
		1.0],
		"bufferView":3,
		"type":"VEC3",
		"componentType":5126,
		"count":241,
		"byteOffset":964,
		"min":[1.0,
		1.0,
		1.0]
	},
	{
		"max":[150],
		"bufferView":4,
		"type":"SCALAR",
		"componentType":5123,
		"count":672,
		"byteOffset":0,
		"min":[0]
	},
	{
		"max":[5.0,
		5.0,
		5.0],
		"bufferView":5,
		"type":"VEC3",
		"componentType":5126,
		"count":151,
		"byteOffset":0,
		"min":[-5.0,
		-5.0,
		-5.0]
	},
	{
		"max":[0.9999999403953552,
		1.0,
		0.9999999403953552],
		"bufferView":5,
		"type":"VEC3",
		"componentType":5126,
		"count":151,
		"byteOffset":12,
		"min":[-0.9999999403953552,
		-1.0,
		-0.9999999403953552]
	},
	{
		"max":[1.0,
		1.0],
		"bufferView":5,
		"type":"VEC2",
		"componentType":5126,
		"count":151,
		"byteOffset":24,
		"min":[0.0,
		0.0]
	},
	{
		"max":[10.0],
		"bufferView":6,
		"type":"SCALAR",
		"componentType":5126,
		"count":241,
		"byteOffset":0,
		"min":[0.0]
	},
	{
		"max":[100.0,
		60.0,
		100.0],
		"bufferView":6,
		"type":"VEC3",
		"componentType":5126,
		"count":241,
		"byteOffset":964,
		"min":[-100.0,
		60.0,
		-100.0]
	},
	{
		"max":[10.0],
		"bufferView":7,
		"type":"SCALAR",
		"componentType":5126,
		"count":241,
		"byteOffset":0,
		"min":[0.0]
	},
	{
		"max":[1.0,
		1.0,
		1.0],
		"bufferView":7,
		"type":"VEC3",
		"componentType":5126,
		"count":241,
		"byteOffset":964,
		"min":[1.0,
		1.0,
		1.0]
	},
	{
		"max":[150],
		"bufferView":8,
		"type":"SCALAR",
		"componentType":5123,
		"count":672,
		"byteOffset":0,
		"min":[0]
	},
	{
		"max":[5.0,
		5.0,
		5.0],
		"bufferView":9,
		"type":"VEC3",
		"componentType":5126,
		"count":151,
		"byteOffset":0,
		"min":[-5.0,
		-5.0,
		-5.0]
	},
	{
		"max":[0.9999999403953552,
		1.0,
		0.9999999403953552],
		"bufferView":9,
		"type":"VEC3",
		"componentType":5126,
		"count":151,
		"byteOffset":12,
		"min":[-0.9999999403953552,
		-1.0,
		-0.9999999403953552]
	},
	{
		"max":[1.0,
		1.0],
		"bufferView":9,
		"type":"VEC2",
		"componentType":5126,
		"count":151,
		"byteOffset":24,
		"min":[0.0,
		0.0]
	},
	{
		"max":[10.0],
		"bufferView":10,
		"type":"SCALAR",
		"componentType":5126,
		"count":241,
		"byteOffset":0,
		"min":[0.0]
	},
	{
		"max":[100.0,
		50.0,
		100.0],
		"bufferView":10,
		"type":"VEC3",
		"componentType":5126,
		"count":241,
		"byteOffset":964,
		"min":[-100.0,
		50.0,
		-100.0]
	},
	{
		"max":[10.0],
		"bufferView":11,
		"type":"SCALAR",
		"componentType":5126,
		"count":241,
		"byteOffset":0,
		"min":[0.0]
	},
	{
		"max":[1.0,
		1.0,
		1.0],
		"bufferView":11,
		"type":"VEC3",
		"componentType":5126,
		"count":241,
		"byteOffset":964,
		"min":[1.0,
		1.0,
		1.0]
	},
	{
		"max":[150],
		"bufferView":12,
		"type":"SCALAR",
		"componentType":5123,
		"count":672,
		"byteOffset":0,
		"min":[0]
	},
	{
		"max":[5.0,
		5.0,
		5.0],
		"bufferView":13,
		"type":"VEC3",
		"componentType":5126,
		"count":151,
		"byteOffset":0,
		"min":[-5.0,
		-5.0,
		-5.0]
	},
	{
		"max":[0.9999999403953552,
		1.0,
		0.9999999403953552],
		"bufferView":13,
		"type":"VEC3",
		"componentType":5126,
		"count":151,
		"byteOffset":12,
		"min":[-0.9999999403953552,
		-1.0,
		-0.9999999403953552]
	},
	{
		"max":[1.0,
		1.0],
		"bufferView":13,
		"type":"VEC2",
		"componentType":5126,
		"count":151,
		"byteOffset":24,
		"min":[0.0,
		0.0]
	},
	{
		"max":[10.0],
		"bufferView":14,
		"type":"SCALAR",
		"componentType":5126,
		"count":241,
		"byteOffset":0,
		"min":[0.0]
	},
	{
		"max":[100.0,
		40.0,
		100.0],
		"bufferView":14,
		"type":"VEC3",
		"componentType":5126,
		"count":241,
		"byteOffset":964,
		"min":[-100.0,
		40.0,
		-100.0]
	},
	{
		"max":[10.0],
		"bufferView":15,
		"type":"SCALAR",
		"componentType":5126,
		"count":241,
		"byteOffset":0,
		"min":[0.0]
	},
	{
		"max":[1.0,
		1.0,
		1.0],
		"bufferView":15,
		"type":"VEC3",
		"componentType":5126,
		"count":241,
		"byteOffset":964,
		"min":[1.0,
		1.0,
		1.0]
	},
	{
		"max":[10.0],
		"bufferView":16,
		"type":"SCALAR",
		"componentType":5126,
		"count":241,
		"byteOffset":0,
		"min":[0.0]
	},
	{
		"max":[1.0,
		1.0,
		1.0],
		"bufferView":16,
		"type":"VEC3",
		"componentType":5126,
		"count":241,
		"byteOffset":964,
		"min":[1.0,
		1.0,
		1.0]
	},
	{
		"max":[1895],
		"bufferView":17,
		"type":"SCALAR",
		"componentType":5123,
		"count":3132,
		"byteOffset":0,
		"min":[0]
	},
	{
		"max":[560.0460205078125,
		204.20199584960938,
		10.433899879455567],
		"bufferView":18,
		"type":"VEC3",
		"componentType":5126,
		"count":1896,
		"byteOffset":0,
		"min":[-1281.739990234375,
		35.86539840698242,
		-1588.97998046875]
	},
	{
		"max":[1.0,
		1.0,
		1.0],
		"bufferView":18,
		"type":"VEC3",
		"componentType":5126,
		"count":1896,
		"byteOffset":12,
		"min":[-1.0,
		-1.0,
		-1.0]
	},
	{
		"max":[0.9995639324188232,
		1.0],
		"bufferView":18,
		"type":"VEC2",
		"componentType":5126,
		"count":1896,
		"byteOffset":24,
		"min":[0.0,
		0.12544000148773194]
	},
	{
		"max":[11921],
		"bufferView":19,
		"type":"SCALAR",
		"componentType":5123,
		"count":31374,
		"byteOffset":0,
		"min":[0]
	},
	{
		"max":[563.947021484375,
		870.89501953125,
		-16.760099411010743],
		"bufferView":20,
		"type":"VEC3",
		"componentType":5126,
		"count":11922,
		"byteOffset":0,
		"min":[-1099.9300537109376,
		27.952199935913087,
		-1643.4300537109376]
	},
	{
		"max":[1.0,
		1.0,
		1.0],
		"bufferView":20,
		"type":"VEC3",
		"componentType":5126,
		"count":11922,
		"byteOffset":12,
		"min":[-1.0,
		-1.0,
		-1.0]
	},
	{
		"max":[0.9996579885482788,
		1.0],
		"bufferView":20,
		"type":"VEC2",
		"componentType":5126,
		"count":11922,
		"byteOffset":24,
		"min":[0.0,
		0.0003420114517211914]
	},
	{
		"max":[120],
		"bufferView":21,
		"type":"SCALAR",
		"componentType":5123,
		"count":600,
		"byteOffset":0,
		"min":[0]
	},
	{
		"max":[0.16439853608608247,
		1.1449174941446928e-16,
		0.2158963829278946],
		"bufferView":22,
		"type":"VEC3",
		"componentType":5126,
		"count":121,
		"byteOffset":0,
		"min":[-0.16439853608608247,
		-1.0755285551056204e-16,
		-0.2158963829278946]
	},
	{
		"max":[0.0,
		1.0,
		5.142388903548877e-16],
		"bufferView":22,
		"type":"VEC3",
		"componentType":5126,
		"count":121,
		"byteOffset":12,
		"min":[0.0,
		1.0,
		5.142387844757693e-16]
	},
	{
		"max":[1.0,
		1.0],
		"bufferView":22,
		"type":"VEC2",
		"componentType":5126,
		"count":121,
		"byteOffset":24,
		"min":[0.0,
		0.0]
	}],
	"bufferViews":[{
		"buffer":0,
		"byteOffset":0,
		"byteLength":1344,
		"target":34963
	},
	{
		"buffer":0,
		"byteOffset":1344,
		"byteLength":4832,
		"target":34962,
		"byteStride":32
	},
	{
		"buffer":1,
		"byteOffset":0,
		"byteLength":3856
	},
	{
		"buffer":1,
		"byteOffset":3856,
		"byteLength":3856
	},
	{
		"buffer":2,
		"byteOffset":0,
		"byteLength":1344,
		"target":34963
	},
	{
		"buffer":2,
		"byteOffset":1344,
		"byteLength":4832,
		"target":34962,
		"byteStride":32
	},
	{
		"buffer":3,
		"byteOffset":0,
		"byteLength":3856
	},
	{
		"buffer":3,
		"byteOffset":3856,
		"byteLength":3856
	},
	{
		"buffer":4,
		"byteOffset":0,
		"byteLength":1344,
		"target":34963
	},
	{
		"buffer":4,
		"byteOffset":1344,
		"byteLength":4832,
		"target":34962,
		"byteStride":32
	},
	{
		"buffer":5,
		"byteOffset":0,
		"byteLength":3856
	},
	{
		"buffer":5,
		"byteOffset":3856,
		"byteLength":3856
	},
	{
		"buffer":6,
		"byteOffset":0,
		"byteLength":1344,
		"target":34963
	},
	{
		"buffer":6,
		"byteOffset":1344,
		"byteLength":4832,
		"target":34962,
		"byteStride":32
	},
	{
		"buffer":7,
		"byteOffset":0,
		"byteLength":3856
	},
	{
		"buffer":7,
		"byteOffset":3856,
		"byteLength":3856
	},
	{
		"buffer":8,
		"byteOffset":0,
		"byteLength":3856
	},
	{
		"buffer":9,
		"byteOffset":0,
		"byteLength":6264,
		"target":34963
	},
	{
		"buffer":9,
		"byteOffset":6264,
		"byteLength":60672,
		"target":34962,
		"byteStride":32
	},
	{
		"buffer":10,
		"byteOffset":0,
		"byteLength":62748,
		"target":34963
	},
	{
		"buffer":10,
		"byteOffset":62748,
		"byteLength":381504,
		"target":34962,
		"byteStride":32
	},
	{
		"buffer":11,
		"byteOffset":0,
		"byteLength":1200,
		"target":34963
	},
	{
		"buffer":11,
		"byteOffset":1200,
		"byteLength":3872,
		"target":34962,
		"byteStride":32
	}],
	"buffers":[{
		"uri":"data:application/octet-stream;base64,",
		"byteLength":6176
	},
	{
		"uri":"data:application/octet-stream;base64,",
		"byteLength":7712
	},
	{
		"uri":"data:application/octet-stream;base64,",
		"byteLength":6176
	},
	{
		"uri":"data:application/octet-stream;base64,",
		"byteLength":7712
	},
	{
		"uri":"data:application/octet-stream;base64,",
		"byteLength":6176
	},
	{
		"uri":"data:application/octet-stream;base64,",
		"byteLength":7712
	},
	{
		"uri":"data:application/octet-stream;base64,",
		"byteLength":6176
	},
	{
		"uri":"data:application/octet-stream;base64,",
		"byteLength":7712
	},
	{
		"uri":"data:application/octet-stream;base64,",
		"byteLength":3856
	},
	{
		"uri":"data:application/octet-stream;base64,",
		"byteLength":66936
	},
	{
		"uri":"data:application/octet-stream;base64,",
		"byteLength":444252
	},
	{
		"uri":"data:application/octet-stream;base64,",
		"byteLength":5072
	}],
	"materials":[{
		"pbrMetallicRoughness":{
			"baseColorFactor":[1.0,
			0.0,
			0.0,
			1.0],
			"metallicFactor":0.0,
			"roughnessFactor":0.5
		},
		"doubleSided":false,
		"emissiveFactor":[0.0,
		0.0,
		0.0],
		"alphaMode":"OPAQUE",
		"name":"Mat"
	},
	{
		"pbrMetallicRoughness":{
			"baseColorFactor":[0.48,
			0.48,
			0.48,
			1.0],
			"metallicFactor":1.0,
			"roughnessFactor":1.0
		},
		"doubleSided":false,
		"emissiveFactor":[0.0,
		0.0,
		0.0],
		"alphaMode":"OPAQUE",
		"name":"lambert4"
	}],
	"animations":[{
		"samplers":[{
			"input":4,
			"interpolation":"LINEAR",
			"output":5
		},
		{
			"input":6,
			"interpolation":"LINEAR",
			"output":7
		},
		{
			"input":12,
			"interpolation":"LINEAR",
			"output":13
		},
		{
			"input":14,
			"interpolation":"LINEAR",
			"output":15
		},
		{
			"input":20,
			"interpolation":"LINEAR",
			"output":21
		},
		{
			"input":22,
			"interpolation":"LINEAR",
			"output":23
		},
		{
			"input":28,
			"interpolation":"LINEAR",
			"output":29
		},
		{
			"input":30,
			"interpolation":"LINEAR",
			"output":31
		},
		{
			"input":32,
			"interpolation":"LINEAR",
			"output":33
		}],
		"channels":[{
			"sampler":0,
			"target":{
				"node":0,
				"path":"translation"
			}
		},
		{
			"sampler":1,
			"target":{
				"node":0,
				"path":"scale"
			}
		},
		{
			"sampler":2,
			"target":{
				"node":1,
				"path":"translation"
			}
		},
		{
			"sampler":3,
			"target":{
				"node":1,
				"path":"scale"
			}
		},
		{
			"sampler":4,
			"target":{
				"node":2,
				"path":"translation"
			}
		},
		{
			"sampler":5,
			"target":{
				"node":2,
				"path":"scale"
			}
		},
		{
			"sampler":6,
			"target":{
				"node":3,
				"path":"translation"
			}
		},
		{
			"sampler":7,
			"target":{
				"node":3,
				"path":"scale"
			}
		},
		{
			"sampler":8,
			"target":{
				"node":4,
				"path":"scale"
			}
		}]
	}]
}